<svg width="61" height="16" viewBox="0 0 61 16" fill="none" xmlns="http://www.w3.org/2000/svg">
<path d="M11.5821 0.689453H14.3196L8.46586 15.1333H5.87598L0 0.689453H2.82103L7.20155 11.8473L11.5821 0.689453Z" fill="white"/>
<path d="M13.6903 15.1333H11.0945L16.9943 0.689453H19.7378L13.6903 15.1333Z" fill="#FF4841"/>
<path d="M31.2288 0.631836H33.7101V15.1398H31.2288V9.02073H24.1197V15.1398H21.6174V0.631836H24.1197V6.66576H31.2288V0.631836Z" fill="white"/>
<path d="M44.0584 4.41553H46.4141V15.1385H44.0584V13.7085C43.2378 14.8232 42.1018 15.391 40.6294 15.391C39.3888 15.391 38.3993 15.0129 37.6429 14.2554C36.9074 13.4978 36.5278 12.4891 36.5278 11.2489V4.41553H38.885V10.5555C38.885 12.0901 39.873 13.1211 41.3872 13.1211C42.9852 13.1211 44.0584 12.0915 44.0584 10.5136V4.41553Z" fill="white"/>
<path d="M59.118 5.7828C60.127 6.85565 60.6322 8.17963 60.6322 9.77705C60.6322 11.3745 60.127 12.7208 59.118 13.7922C58.109 14.8637 56.846 15.391 55.3527 15.391C53.7757 15.391 52.5127 14.7604 51.5665 13.4783V15.1399H49.2122V0H51.5679V6.07578C52.5141 4.79366 53.7757 4.16306 55.3541 4.16306C56.846 4.16306 58.1076 4.70995 59.118 5.7828ZM54.8908 13.1198C55.837 13.1198 56.6157 12.8045 57.2465 12.1739C57.8773 11.5224 58.1927 10.7229 58.1927 9.77705C58.1927 8.83115 57.8773 8.03174 57.2465 7.40115C56.6157 6.74962 55.837 6.43432 54.8908 6.43432C53.9446 6.43432 53.1658 6.74962 52.5141 7.40115C51.8833 8.03174 51.5679 8.83115 51.5679 9.77705C51.5679 10.7229 51.8833 11.5224 52.5141 12.1739C53.1658 12.8045 53.9446 13.1198 54.8908 13.1198Z" fill="white"/>
</svg>
